Patient4_TMGait_0pt7_02_left_20_EMG.mot
version=1
nRows=30
nColumns=33
inDegrees=no
endheader
time	1LAddLong	2LGlutMax	3LGlutMed	4LIliopsoas	5LSemiMemb	6LBicFemLong	7LRecFem	8LVastMed	9LVastLat	10LGasMed	11LTibAnt	12lTibPost	13LPeroneusLong	14LSol	15LExtDigLong	16LFlexDigLong	17RAddLong	18RGlutMax	19RGlutMed	20RIliopsoas	21RSemiMemb	22RBicFemLong	23RRecFem	24RVastMed	25RVastLat	26RGasMed	27RTibAnt	28RTibPost	29RPeroneusLong	30RSol	31RExtDigLong	32RFlexDigLong
23.062	0.02533	1.1572	0.15396	0.007477	-0.065155	-0.16678	0.92255	-0.006714	-0.007935	0.06012	0.049286	0.011749	-0.25909	-0.11765	-0.013428	-0.009003	0.032043	-0.050812	-0.25543	-0.05188	-0.028534	0.096893	0.86914	-0.15778	-0.059967	0.005035	0.04776	-0.019531	-0.41611	-0.41138	0.002747	-0.000763
23.063	-0.002594	1.1438	0.11505	0.011749	-0.20126	0.070343	0.7515	-0.001831	-0.16052	-0.011902	0.029755	0.014648	-0.22705	-0.10437	-0.015411	0.058289	-0.001526	-0.1355	-0.32044	-0.045776	-0.012817	0.16373	0.88364	-0.16342	-0.052643	0.013428	-0.005493	0.017853	-0.22171	0.005646	0.003357	-0.000763
23.064	0.035706	1.1766	0.070648	0.015106	-0.18295	0.06546	0.56259	-0.019989	-0.25146	0.083008	0.042572	0.020905	-0.015564	-0.034485	0.044403	0.13138	-0.005188	-0.11765	-0.39597	-0.054321	-0.007324	0.13153	0.85129	-0.1648	-0.037384	0.021362	-0.12207	0.031281	-0.14893	-0.01297	-0.002441	-0.005188
23.065	0.054932	1.1584	-0.003662	0.032196	0.003662	0.068054	0.38589	-0.023346	-0.34485	0.20584	0.032806	0.016327	-0.034027	-0.15045	0.010834	-0.13641	0.024261	-0.15427	-0.44708	-0.13306	-0.005188	0.056152	0.89935	-0.1622	-0.036469	0.025482	-0.029755	0.014648	0.009003	0.20691	0.003357	-0.00061
23.066	0.042572	1.0786	-0.001984	-0.010681	0.027466	0.11398	0.24765	-0.016937	-0.36301	-0.063477	0.022888	0.013275	-0.10864	-0.35446	0.033875	0.066528	0.07782	-0.23514	-0.35309	-0.11475	-0.009155	-0.015869	0.83969	-0.13565	-0.040894	0.006409	0.069122	0.016785	0.090637	0.15076	-0.003357	-0.003815
23.067	0.053864	0.97702	0.088348	-0.016022	0.053253	-0.11292	0.091858	-0.010986	-0.32425	-0.07843	-0.015564	0.021057	-0.023041	-0.52673	0.049744	0.12146	0.10895	-0.31281	-0.28122	-0.006409	0.018768	-0.070648	0.85312	-0.14175	-0.037231	-0.001068	0.33615	0.038452	0.029602	-0.15839	-0.000153	-0.009613
23.068	0.062714	0.97595	0.14679	-0.024414	0.06485	-0.23926	-0.044861	-0.003967	-0.19363	0.28076	-0.031433	0.033112	0.041046	-0.47913	0.053864	-0.16892	0.061493	-0.32547	-0.26291	0.07782	0.057831	-0.16632	0.83405	-0.095062	-0.023956	-0.009003	0.66132	0.019836	0.024261	-0.24384	-0.000916	-0.014191
23.069	0.074768	0.94162	0.16022	0.003357	0.083313	-0.18097	-0.23361	0.013428	-0.019531	-0.3775	-0.014801	0.04303	0.14755	-0.34607	0.08606	-0.19623	0.094604	-0.3125	-0.21271	0.082703	0.055542	-0.15884	0.82382	-0.1149	-0.024261	-0.017395	0.84518	0.006714	-0.039368	-0.32272	0.001373	-0.009308
23.07	0.078735	0.85434	-0.052338	0.003204	0.058899	-0.044098	-0.4097	0.036011	0	-0.46417	-0.000916	0.049286	0.13138	-0.24933	0.044861	0.017395	0.08728	-0.3688	-0.29343	0.070648	0.047302	-0.097198	0.84183	-0.10391	-0.007019	-0.026398	0.78033	-0.002136	-0.082703	-0.27466	0.003662	-0.003357
23.071	0.056152	0.76218	-0.20264	0.011444	0.026855	0.059967	-0.56168	0.05127	-0.12573	-0.30807	0.015259	0.059814	-0.1384	0.11002	0.018158	0.049896	0.10101	-0.36575	-0.37705	0.056763	0.047302	-0.025635	0.87067	-0.09903	-0.020294	-0.023193	0.37384	-0.00885	0.053253	-0.1738	0.000153	-0.003204
23.072	0.047913	0.72357	-0.3067	-0.000916	0.001068	0.16419	-0.75317	0.053101	-0.19989	-0.25543	0.019379	0.092316	-0.30563	0.25452	0.002441	-0.022583	0.10422	-0.40634	-0.4953	0.005188	0.055389	0.07309	0.89477	-0.075531	-0.034027	-0.004272	-0.25772	-0.015106	0.25711	-0.23041	-0.002594	-0.006409
23.073	0.050354	0.61432	-0.327	0.00885	-0.056305	0.18799	-0.9584	0.039825	-0.15991	-0.1471	0.02182	0.086823	-0.18173	0.29205	-0.018616	-0.036774	0.10742	-0.47043	-0.44754	-0.05722	0.043335	0.070038	0.88898	-0.088806	-0.020142	0.005035	-0.15442	-0.00412	0.19501	-0.25635	-0.00412	-0.001373
23.074	0.064545	0.59464	-0.39429	0.009155	-0.017853	0.17624	-1.0258	0.026398	-0.082397	-0.063629	0.015564	0.080261	0.087891	0.26733	-0.032806	-0.027771	0.071411	-0.51529	-0.44189	-0.080109	0.033722	0.064545	0.85358	-0.11704	-0.026855	0.012665	-0.14099	-0.011597	0.16205	-0.37109	-0.001831	-0.003357
23.075	0.065155	0.68131	-0.40832	0.001068	0.003357	0.41351	-0.99487	-0.011597	0.068359	0.10086	0.021973	0.083466	0.062256	0.25589	-0.000153	-0.025787	0.052948	-0.53787	-0.45898	-0.031433	0.02243	0.072021	0.88318	-0.053711	-0.024109	0.015717	-0.47363	-0.014648	0.28366	-0.37781	0.001678	-0.005341
23.076	0.047455	0.81009	-0.41489	0.01297	0.040588	0.61813	-0.8081	-0.026398	0.061493	0.49591	0.016174	0.078888	-0.027924	0.34058	0.015411	-0.018616	-0.019073	-0.52078	-0.52933	0.050201	0.01297	0.055084	0.88715	0.00351	-0.025482	0.0177	-1.7857	-0.007782	0.28412	-0.22812	-0.000458	0.006714
23.077	0.029297	1.0628	-0.43045	0.010223	-0.004883	0.69244	-0.63919	-0.016937	-0.19577	0.72403	0.006866	0.054474	0.14435	0.29175	0.023651	-0.022125	-0.022888	-0.57358	-0.58975	0.20981	0.020142	0.026703	0.89432	-0.012665	-0.035553	0.006866	-1.2451	-0.014648	0.086212	-0.088501	0.000153	0.00412
23.078	0.014343	1.2283	-0.38483	-0.000458	-0.065308	0.82047	-0.64911	-0.02243	-0.38498	0.18799	-0.001831	0.055237	0.18417	0.18097	-0.005341	-0.011139	-0.016327	-0.57404	-0.4686	0.24811	0.041809	0.037994	0.93643	-0.005341	-0.044556	-0.007477	-0.3566	-0.015106	-0.073242	0.11276	-0.002594	-0.003204
23.079	0.013123	1.5338	0.054626	-0.004272	-0.1767	0.97717	-0.66116	-0.028534	-0.25192	-0.061646	0.028381	0.070038	0.035706	0.14435	-0.049286	0.035095	0.004425	-0.5809	-0.21316	0.16785	0.03891	0.030975	0.88577	-0.11856	-0.031433	-0.005188	-0.095825	-0.01358	-0.061646	0.11124	-0.00061	-0.003967
23.08	0.013275	1.8124	0.097351	0.005188	-0.20386	0.54474	-0.66101	-0.010529	-0.02182	-0.06012	0.024261	0.070648	0.000763	0.17212	-0.035706	0.06958	0.000763	-0.64377	-0.37033	0.19836	0.037384	0.031586	0.81055	-0.11704	-0.0383	0.006104	0.092163	-0.011292	0.031891	0.031586	-0.004578	0.001526
23.081	0.014496	2.1114	0.071259	-0.004272	-0.12665	0.13504	-0.70831	-0.017242	0.15656	-0.1767	0.020142	0.007782	-0.043945	0.14145	-0.044861	-0.44159	-0.028687	-0.73151	-0.7486	0.14053	0.040894	0.065002	0.7637	-0.10254	-0.011139	0.017242	0.12314	-0.014954	0.14313	-0.03006	-0.000153	0.00473
23.082	0.027771	2.394	0.036163	0.000153	-0.048676	-0.1947	-0.79361	-0.002289	0.23239	-0.298	0.014191	0.028229	-0.001984	0.009918	-0.045013	0.031433	-0.023346	-0.77759	-0.89142	0.074158	0.041504	0.058594	0.61981	-0.11017	-0.002136	0.016174	-0.39948	-0.010681	0.159	0.045929	-0.002441	0.000916
23.083	0.02655	2.5063	0.034027	0.000305	-0.005493	-0.38238	-0.8873	0.002747	0.20371	-0.23407	0.012512	0.055237	0.18906	-0.31189	-0.040436	0.079193	0.002136	-0.8255	-0.87997	0.029602	0.0354	0.041809	0.69488	-0.16464	-0.017395	0.001984	-0.70435	-0.016479	0.097961	0.17029	-0.003967	-0.00351
23.084	0.01236	2.4884	-0.007782	-0.000763	-0.00061	-0.002899	-0.79941	0.020905	0.26504	-0.12741	0.016022	0.022583	-0.029907	-0.16861	0.01236	0.065918	0.042267	-0.84732	-0.47791	-0.17731	0.021515	0.045471	0.75287	-0.11322	0.003357	-0.001831	-0.65277	-0.011292	0.076599	0.09552	-0.003052	-0.015564
23.085	-0.004883	2.278	0.037994	0.002899	-0.023346	0.033112	-0.70053	0.053711	0.37598	-0.084839	0.02533	0.005646	-0.14984	-0.040436	0.025787	0.021362	0.022736	-0.8493	-0.34866	-0.19775	-0.005798	0.056763	0.77743	-0.12116	-0.000153	0.006714	-0.45685	-0.009308	0.10529	-0.028076	-0.000305	-0.010986
23.086	-0.010376	1.833	0.081329	-0.001068	-0.097504	-0.41809	-0.62882	0.040894	0.35706	-0.080566	0.03418	-0.043945	0.071411	0.096741	0.020752	0.001373	0.027313	-0.8342	-0.29541	-0.11917	-0.002747	0.065308	0.79254	-0.18249	0.007324	0.008392	-0.32593	-0.010071	0.14511	-0.00946	-0.003967	-0.006714
23.087	-0.021973	1.5979	0.054779	0.028534	-0.11871	-0.70328	-0.625	-0.006866	0.24796	-0.016174	0.06958	-0.032043	0.32044	0.22842	-0.001221	0.005798	0.06134	-0.91812	-0.45868	-0.059052	-0.01297	0.052643	0.78735	-0.19852	0.01297	0.006256	-0.22598	-0.016022	0.13473	0.063934	-0.003815	-0.011597
23.088	-0.021515	1.4073	0.036163	0.022583	-0.063629	-0.48721	-0.45212	-0.024719	0.16098	0.058136	0.088196	-0.024109	0.27634	0.16724	0.030975	0.002899	0.029144	-0.94894	-0.64087	0.005035	0.007019	0.086365	0.73639	-0.15579	0.036774	0.000153	-0.093689	-0.003967	0.06485	0.13153	-0.005035	-0.006256
23.089	-0.042419	1.2119	-0.11337	0.00946	-0.074768	-0.010529	-0.27985	-0.021362	-0.067902	0.082092	0.005188	-0.037384	0.15778	0.1181	0.03479	0.003967	0.017242	-0.96481	-0.5217	0.007019	0.023804	0.11643	0.66299	-0.15274	0.061188	-0.003357	0.037842	-0.004272	-0.007782	0.094757	-0.001831	-0.010071
23.09	-0.045471	1.0609	-0.20554	-0.028839	-0.079803	0.10468	-0.25681	-0.009308	-0.13733	0.14175	-0.075531	-0.043182	0.37415	0.090637	0.054474	-0.029907	-0.004425	-1.0136	-0.34866	-0.014496	0.018158	0.12299	0.65582	-0.11459	0.070038	-0.002899	0.24292	-0.006256	-0.079346	0.08316	-0.002136	-0.003967
23.091	-0.016785	0.86289	-0.087738	-0.014038	-0.055389	0.10864	-0.25314	-0.005951	-0.079193	-0.007019	-0.096283	-0.027313	0.45502	0.13428	0.002594	0.015717	-0.023346	-1.0825	-0.52002	0.096741	0.023956	0.14679	0.61737	-0.18601	0.062408	0.006409	0.24109	-0.00946	-0.081177	0.055084	-0.00824	-0.002594
